<svg xmlns:svg="http://www.w3.org/2000/svg" xmlns="http://www.w3.org/2000/svg" width="10" height="800" version="1.1"><g transform="translate(0,-252.3622)"><g transform="translate(-0.09746481,93.21171)"><path d="m640.5 450.9-144.2-6.7-2.9 0.1 0-192.3 147.1 17.6 0 181.3zm157.8-162.8 0 542.9-4.9 0-289.2 33.7 0-395.9 150.8 5.7 3.7-3.4-0.1-184-1.1-15.1 138.9 16.2 2.1 0zm-131 318.2-16 0 0 97.5 16-1.2 0-96.2z" fill="#fff"/><path d="m493.4 251.9-493.4 35.3 0 543.9 484.7 35.4 0-396-337.4 7.1 0-23 14.7-1.1 333.4-8.7 0-192.6-2-0.2zm-185.4 393.8 0 23.7-308-8.4 0-22 308 6.7z" fill="url(#S_2_)"/></g></g><rect width="23" height="544.5" x="-5.5" y="127.9" fill="#f2f2f2"/></svg>
