<svg xmlns="http://www.w3.org/2000/svg" xmlns:xlink="http://www.w3.org/1999/xlink" width="820" height="801">
  <defs>
    <linearGradient id="a">
      <stop offset="0" stop-opacity=".157"/>
      <stop offset=".408" stop-opacity=".031"/>
      <stop offset="1" stop-opacity=".157"/>
    </linearGradient>
    <linearGradient xlink:href="#a" id="b" x1="-.893" y1="586.306" x2="799.07" y2="582.771" gradientUnits="userSpaceOnUse"/>
    <filter id="c" color-interpolation-filters="sRGB">
      <feGaussianBlur stdDeviation="16 2" result="blur"/>
    </filter>
  </defs>
  <g fill-opacity="1" fill="url(#b)" filter="url(#c)" transform="matrix(1.0025 0 0 1 -.097 -131.148)">
    <path d="M326.292 287.098l228.098-6.582V462.29l-228.11 17.46m472.81 336.38l-456.22 83.226V502.478l239.517-19.41-.035-203.016 216.732-7.887c.006 45.33.01 90.66.01 135.99.003 45.33.003 90.66.002 135.992 0 45.33-.002 90.66-.004 135.992l19.7 135.883-19.702.108zM595.864 613.68l-24.884 2.633v97.72l24.884-3.88zM326.277 287.002S108.143 276.99-.893 272.148c.005 116.998.003 234.64.003 351.873l203.374 37.788-.013 23.745L-.89 646.028V816.15l320.093 84.314v-396.18L96.376 477.37V454.34l229.9 25.276"/>
  </g>
  <path fill="#c66535" fill-rule="evenodd" d="M800.975 129h19.814v544h-19.815z"/>
  <path d="M496.013 93.948l147.137 17.54v181.775L496.005 286.6m304.992 386.38l-294.29 34.98V311.082l154.503 5.92-.022-203.02 139.805 15.03c.016 181.324.004 362.644.004 543.968zM669.904 449.04h-16.052v97.72l16.052-1.25z" fill="#cb753f"/>
  <path d="M496.097 93.85S164.673 117.177-.993 128.998c.008 116.998.004 234.64.004 351.873l309 6.706-.02 23.747-308.98-8.446V673l486.34 35.395v-396.18l-338.556 7.138v-23.027l349.303-9.858" fill="#af4d27"/>
</svg>
